<?xml version="1.0" encoding="utf-8"?>
<!-- Generator: Adobe Illustrator 16.0.0, SVG Export Plug-In . SVG Version: 6.00 Build 0)  -->
<!DOCTYPE svg PUBLIC "-//W3C//DTD SVG 1.1//EN" "http://www.w3.org/Graphics/SVG/1.1/DTD/svg11.dtd">
<svg version="1.1" id="レイヤー_1" xmlns="http://www.w3.org/2000/svg" xmlns:xlink="http://www.w3.org/1999/xlink" x="0px"
	 y="0px" width="210.828px" height="208.279px" viewBox="0 0 210.828 208.279" enable-background="new 0 0 210.828 208.279"
	 xml:space="preserve">
<circle fill="#231815" cx="103.886" cy="105.232" r="99.672"/>
<g>
	<polygon fill="#FFFFFF" points="83.66,35.743 65.219,55.743 124.764,55.743 141.874,35.743 	"/>
	<path fill="#FFFFFF" d="M65.219,174.72h59.192v-118H65.219V174.72z M119.153,101.928h-6.21V90.817h6.21V101.928z M112.913,69.505
		h6.21v11.111h-6.21V69.505z M112.913,112.127h6.21v11.111h-6.21V112.127z M111.044,101.928h-6.209V90.817h6.209V101.928z
		 M104.806,69.505h6.211v11.111h-6.211V69.505z M104.806,112.127h6.211v11.111h-6.211V112.127z M102.937,101.928h-6.211V90.817
		h6.211V101.928z M96.698,69.505h6.209v11.111h-6.209V69.505z M96.698,112.127h6.209v11.111h-6.209V112.127z M94.829,101.928h-6.21
		V90.817h6.21V101.928z M88.59,69.505h6.21v11.111h-6.21V69.505z M88.59,112.127h6.21v11.111h-6.21V112.127z M86.721,101.928H80.51
		V90.817h6.211V101.928z M80.482,69.505h6.209v11.111h-6.209V69.505z M80.482,112.127h6.209v11.111h-6.209V112.127z M78.613,101.928
		h-6.211V90.817h6.211V101.928z M72.375,69.505h6.209v11.111h-6.209V69.505z M72.375,112.127h6.209v11.111h-6.209V112.127z"/>
	<path fill="#FFFFFF" d="M141.874,36.356L125.09,55.774v118.332l17.463-17.332L141.874,36.356z M128.379,66.639l4.219-6v10.363
		l-4.219,6V66.639z M132.928,114.436l-4.221,6v-10.365l4.221-6V114.436z M132.928,93.124l-4.221,6V88.76l4.221-6V93.124z
		 M134.387,58.325l4.221-5.998v10.361l-4.221,6.002V58.325z M138.936,106.122l-4.221,6v-10.363l4.221-6V106.122z M138.936,84.809
		l-4.221,6.002V80.446l4.221-5.998V84.809z"/>
</g>
</svg>
