<?xml version="1.0" encoding="utf-8"?>
<!-- Generator: Adobe Illustrator 16.0.0, SVG Export Plug-In . SVG Version: 6.00 Build 0)  -->
<!DOCTYPE svg PUBLIC "-//W3C//DTD SVG 1.1//EN" "http://www.w3.org/Graphics/SVG/1.1/DTD/svg11.dtd">
<svg version="1.1" id="レイヤー_1" xmlns="http://www.w3.org/2000/svg" xmlns:xlink="http://www.w3.org/1999/xlink" x="0px"
	 y="0px" width="210.828px" height="208.279px" viewBox="0 0 210.828 208.279" enable-background="new 0 0 210.828 208.279"
	 xml:space="preserve">
<circle fill="#231815" cx="105.414" cy="104.139" r="99.672"/>
<g>
	<path fill="#FFFFFF" d="M95.092,93.514c0,0,1.081-1.564,1.854-2.01c1.38,0.156,3.656-0.979,4.199-1.377
		c0.547-0.398,2.198-2.469,2.363-3.076c0.167-0.613-0.397-0.547-0.362-1.082c0.021-0.346-0.058-0.625-0.118-0.898l28.833-6.629
		l-0.445-1.934l-29.467,6.773c-0.029-0.051-0.059-0.102-0.104-0.18c-0.222-0.389-1.591-0.979-1.591-0.979s0,0-0.557-0.369
		c-0.559-0.371-3.212,0.553-3.777,0.617c-0.564,0.066-2.004,1.752-2.004,1.752l-2.017,5.031l-0.876,1.617
		C92.268,92.645,95.092,93.514,95.092,93.514z"/>
	<path fill="#FFFFFF" d="M80.073,57.727v45.453l-2.516,3.076c0,0-0.778-0.057-1.293,0.404c0.077,0.074,0.137,0.156,0.21,0.232
		c-0.147-0.014-0.292-0.043-0.445-0.051c-0.021,0.191-0.008,0.395,0.08,0.611c-1.737,0.764-8.079,6.727-9.062,7.654l-0.108-0.396
		c-0.741,0.186-5.174,1.061-5.814,1.498c-0.38,0.26-1.933,1.365-3.134,2.227l-0.649-0.047c0.097-0.395,0.175-0.689,0.225-0.813
		c1.451-0.195,1.935-1.928,2.077-2.557c0.141-0.629,0.928-5.691,1.091-8.389c0.161-2.701-0.714-5.736-0.688-5.947
		c0.023-0.211,0.019-0.783-0.06-1.365c-0.077-0.58-1.092-3.631-1.092-3.631l0.379-0.813l0.251-0.975l0.073-1.279
		c0,0-0.588,0.146-0.939,0.107c0.557-0.51,0.763-1.701,0.763-1.701L58.65,91.51c0.228-0.113,0.451-0.807-0.06-0.721
		c-0.512,0.084-3.292-0.016-7.626,0.355c-4.335,0.367-6.552,2.906-7.096,3.918c0,0-2.53,0.861-3.17,3.365
		c-1.572,5.043,1.191,13.512,1.764,14.15c0.57,0.635,1.504,2.529,1.504,2.529l-0.699,3.684l-2.2,2.639
		c-0.559,0.727-1.134,1.412-1.305,1.396c-0.361-0.025-2.225,0.561-2.225,0.561s-7.399,5.016-8.16,5.443
		c-0.758,0.426-1.974,0.457-2.714,2.219s-4.176,8.656-4.326,9.01c-0.147,0.352-3.703,8.426-3.956,8.975
		c-0.465,1-0.936,2.115-1.386,3.23c2.146,3.844,4.533,7.533,7.152,11.041c0.341-0.855,0.846-2.328,0.846-2.328l3.922-8.516
		c0,0,2.128-4.102,2.501-4.195c0.37-0.094,0.643-0.682,0.643-0.682l-0.135,19.271c0,0-0.248,1.68-0.889,2.115
		c-0.601,0.412-0.143,2.27-0.084,2.498c9.958,10.746,22.253,19.293,36.08,24.83c1.853-0.371,2.925-0.779,2.925-0.779l-2.771-13.973
		l0.844,0.064l-1.555-8.244c0,0,0.568-9.051,0.605-9.533c0.035-0.482,1.414-4.258,1.775-5.807c0.318-1.367,2.473-20.68,2.98-25.24
		l-0.68-2.508c0.305-0.436,0.531-0.752,0.611-0.844c0.396-0.453,3.604-4.334,4.215-4.406c0.611-0.074,0.975-1.625,1.521-2.434
		c0.205-0.303,1.294-2.004,2.569-4.006v5.246h98.996V57.727H80.073z M49.064,145.948l-0.086-0.906l0.12,0.361L49.064,145.948z
		 M173.401,118.168H85.742v-7.594c3.663-5.004,9.834-13.449,10.271-14.111c0.616-0.932,0.362-1.021,0.362-1.021
		s-4.016-0.318-6.872-3.617c-0.421-0.26-0.692,0.674-0.692,0.674l-3.068,3.752V63.395h87.659V118.168z"/>
</g>
</svg>
