<?xml version="1.0" encoding="utf-8"?>
<!-- Generator: Adobe Illustrator 16.0.0, SVG Export Plug-In . SVG Version: 6.00 Build 0)  -->
<!DOCTYPE svg PUBLIC "-//W3C//DTD SVG 1.1//EN" "http://www.w3.org/Graphics/SVG/1.1/DTD/svg11.dtd">
<svg version="1.1" id="レイヤー_1" xmlns="http://www.w3.org/2000/svg" xmlns:xlink="http://www.w3.org/1999/xlink" x="0px"
	 y="0px" width="106.75px" height="103.875px" viewBox="0 0 106.75 103.875" enable-background="new 0 0 106.75 103.875"
	 xml:space="preserve">
<g>
	<circle fill="#231815" cx="50" cy="50" r="50"/>
	<g>
		<path fill="#FFFFFF" d="M31.104,84.705h28.69V25.51h-28.69V84.705z M57.246,48.189h-3.01v-5.574h3.01V48.189z M54.223,31.923
			h3.011v5.574h-3.011V31.923z M54.223,53.307h3.011v5.574h-3.011V53.307z M53.314,48.189h-3.009v-5.574h3.009V48.189z
			 M50.292,31.923h3.011v5.574h-3.011V31.923z M50.292,53.307h3.011v5.574h-3.011V53.307z M49.386,48.189h-3.01v-5.574h3.01V48.189z
			 M46.362,31.923h3.01v5.574h-3.01V31.923z M46.362,53.307h3.01v5.574h-3.01V53.307z M45.457,48.189h-3.011v-5.574h3.011V48.189z
			 M42.431,31.923h3.011v5.574h-3.011V31.923z M42.431,53.307h3.011v5.574h-3.011V53.307z M41.526,48.189h-3.011v-5.574h3.011
			V48.189z M38.503,31.923h3.009v5.574h-3.009V31.923z M38.503,53.307h3.009v5.574h-3.009V53.307z M37.597,48.189h-3.011v-5.574
			h3.011V48.189z M34.573,31.923h3.009v5.574h-3.009V31.923z M34.573,53.307h3.009v5.574h-3.009V53.307z"/>
		<path fill="#FFFFFF" d="M60.135,84.398l8.762-8.695l-0.342-60.368l0.035-0.04H40.123l-9.019,9.726h29.044l-0.014,0.016V84.398
			L60.135,84.398z M64.068,54.465l-2.117,3.01v-5.2l2.117-3.012V54.465z M67.082,50.292l-2.117,3.012v-5.2l2.117-3.01V50.292z
			 M67.082,39.602l-2.117,3.011v-5.199l2.117-3.01V39.602z M64.799,26.315l2.117-3.009v5.198l-2.117,3.01V26.315z M64.068,43.772
			l-2.117,3.01v-5.199l2.117-3.01V43.772z M61.785,30.486l2.117-3.01v5.199l-2.117,3.01V30.486z"/>
	</g>
</g>
</svg>
