<?xml version="1.0" encoding="utf-8"?>
<!-- Generator: Adobe Illustrator 16.0.0, SVG Export Plug-In . SVG Version: 6.00 Build 0)  -->
<!DOCTYPE svg PUBLIC "-//W3C//DTD SVG 1.1//EN" "http://www.w3.org/Graphics/SVG/1.1/DTD/svg11.dtd">
<svg version="1.1" id="レイヤー_1" xmlns="http://www.w3.org/2000/svg" xmlns:xlink="http://www.w3.org/1999/xlink" x="0px"
	 y="0px" width="108px" height="104.721px" viewBox="0 0 108 104.721" enable-background="new 0 0 108 104.721"
	 xml:space="preserve">
<g>
	<circle fill="#231815" cx="50" cy="50" r="50"/>
	<g>
		<path fill="#FFFFFF" d="M44.506,44.342c0,0,0.543-0.785,0.931-1.008c0.692,0.078,1.834-0.491,2.106-0.691
			c0.273-0.2,1.103-1.238,1.185-1.543c0.084-0.308-0.199-0.274-0.181-0.542c0.01-0.173-0.029-0.314-0.061-0.45l14.464-3.326
			l-0.224-0.97l-14.782,3.397c-0.015-0.025-0.03-0.052-0.052-0.091c-0.111-0.194-0.799-0.49-0.799-0.49s0,0-0.278-0.186
			c-0.28-0.186-1.61,0.277-1.896,0.311c-0.283,0.033-1.004,0.879-1.004,0.879l-1.013,2.522l-0.438,0.813
			C43.09,43.905,44.506,44.342,44.506,44.342z"/>
		<path fill="#FFFFFF" d="M36.973,26.389v22.802l-1.262,1.543c0,0-0.39-0.027-0.647,0.202c0.039,0.038,0.069,0.079,0.104,0.117
			c-0.074-0.008-0.146-0.021-0.224-0.025c-0.01,0.096-0.004,0.197,0.041,0.307c-0.872,0.384-4.054,3.375-4.546,3.84l-0.055-0.199
			c-0.371,0.094-2.596,0.533-2.916,0.752c-0.191,0.131-0.971,0.685-1.573,1.117l-0.325-0.023c0.049-0.197,0.088-0.346,0.113-0.408
			c0.729-0.098,0.971-0.967,1.042-1.282s0.465-2.854,0.547-4.208c0.081-1.354-0.358-2.877-0.345-2.983
			c0.011-0.105,0.009-0.393-0.03-0.685c-0.039-0.291-0.547-1.821-0.547-1.821l0.19-0.408l0.125-0.489l0.036-0.642
			c0,0-0.295,0.073-0.471,0.053c0.278-0.255,0.383-0.853,0.383-0.853l-0.387,0.242c0.114-0.058,0.226-0.405-0.03-0.362
			c-0.257,0.042-1.65-0.007-3.826,0.179c-2.174,0.185-3.287,1.458-3.56,1.965c0,0-1.269,0.433-1.591,1.688
			c-0.788,2.53,0.599,6.777,0.886,7.099c0.286,0.318,0.754,1.27,0.754,1.27l-0.351,1.848l-1.104,1.324
			c-0.28,0.364-0.567,0.708-0.653,0.7c-0.182-0.014-1.117,0.281-1.117,0.281s-3.711,2.517-4.092,2.729
			c-0.381,0.214-0.992,0.229-1.363,1.113c-0.37,0.884-2.094,4.343-2.17,4.521c-0.073,0.176-1.857,4.227-1.983,4.501
			c-0.233,0.501-0.47,1.062-0.694,1.62c1.076,1.929,2.273,3.779,3.588,5.539c0.17-0.43,0.424-1.168,0.424-1.168l1.968-4.271
			c0,0,1.067-2.058,1.254-2.104s0.323-0.342,0.323-0.342l-0.068,9.668c0,0-0.125,0.843-0.445,1.061
			c-0.302,0.207-0.072,1.14-0.043,1.253c4.996,5.392,11.164,9.68,18.101,12.456c0.93-0.187,1.467-0.391,1.467-0.391l-1.39-7.01
			l0.423,0.031l-0.78-4.136c0,0,0.285-4.541,0.305-4.782c0.017-0.24,0.709-2.137,0.889-2.913c0.16-0.686,1.242-10.372,1.496-12.661
			L32.5,62.782c0.153-0.219,0.268-0.377,0.308-0.423c0.198-0.228,1.808-2.175,2.114-2.211c0.307-0.037,0.488-0.813,0.763-1.221
			c0.103-0.151,0.649-1.005,1.289-2.01v2.632h49.661V26.39L36.973,26.389L36.973,26.389z M21.418,70.644l-0.043-0.454l0.06,0.181
			L21.418,70.644z M83.791,56.709H39.817v-3.811c1.837-2.51,4.933-6.746,5.151-7.079c0.31-0.467,0.183-0.512,0.183-0.512
			s-2.015-0.159-3.446-1.814c-0.212-0.131-0.348,0.338-0.348,0.338l-1.539,1.882v-16.48h43.975L83.791,56.709L83.791,56.709z"/>
	</g>
</g>
</svg>
