<?xml version="1.0" encoding="utf-8"?>
<!-- Generator: Adobe Illustrator 16.0.0, SVG Export Plug-In . SVG Version: 6.00 Build 0)  -->
<!DOCTYPE svg PUBLIC "-//W3C//DTD SVG 1.1//EN" "http://www.w3.org/Graphics/SVG/1.1/DTD/svg11.dtd">
<svg version="1.1" id="レイヤー_1" xmlns="http://www.w3.org/2000/svg" xmlns:xlink="http://www.w3.org/1999/xlink" x="0px"
	 y="0px" width="360px" height="560px" viewBox="0 0 360 560" enable-background="new 0 0 360 560" xml:space="preserve">
<g>
	<circle fill="#231815" cx="176.029" cy="274.45" r="99.672"/>
	<path fill="#FFFFFF" d="M100.174,293.02l6.735,5.24h-8.232c0,0,19.459,15.342,42.287,15.717
		c3.742,2.246,20.582,15.717,23.948,11.602c-1.121-5.613-4.115-10.854-4.115-10.854l17.962-1.496c0,0,6.737,8.607,13.471,7.857
		c6.736-0.748,20.957-9.355,20.209-13.098c-0.748-3.367-3.369-3.367-3.369-3.367l14.596-6.361c0,0,20.395,13.471,28.439,12.535
		c1.311,0.188,1.684-5.238,0-8.793s-4.303-5.426-5.238-6.924c-0.936-1.496-0.188-3.367,0.375-4.115
		c0.561-0.748,5.807-7.672,5.99-12.723c0.557-1.685-0.377-2.994-4.119-1.685c-3.742,1.311-16.654,6.548-23.016,10.666
		c0.375,0.186-0.936,1.289-1.684,1.58s-6.736-4.012-10.104-5.697c-3.369-1.684-4.49-1.496-5.988-2.993
		c-1.496-1.497-1.123-2.003,1.498-4.089c2.619-2.086,9.916-6.016,8.605-8.073c-1.311-2.059-5.238-3.368-18.711-4.865
		c-12.723-2.807-23.387-6.923-29-8.233c-5.613-1.309-12.91-3.555-18.149,0.936c-5.239,4.491-4.491,6.362-5.987,7.298
		c-1.497,0.936-9.918,2.62-8.421,2.807C139.654,266.078,111.587,272.252,100.174,293.02z"/>
	<path fill="#FFFFFF" d="M176.684,237.391l2.945,2.292h-3.601c0,0,8.51,6.709,18.493,6.873c1.637,0.982,9,6.873,10.473,5.073
		c-0.49-2.455-1.799-4.746-1.799-4.746l7.854-0.654c0,0,2.947,3.764,5.893,3.437s9.164-4.091,8.836-5.728
		c-0.326-1.473-1.473-1.473-1.473-1.473l6.383-2.782c0,0,8.918,5.891,12.438,5.482c0.572,0.082,0.736-2.291,0-3.846
		c-0.738-1.555-1.883-2.373-2.291-3.027c-0.41-0.655-0.082-1.473,0.164-1.8c0.244-0.328,2.539-3.355,2.619-5.564
		c0.244-0.736-0.166-1.31-1.803-0.736c-1.635,0.572-7.281,2.864-10.064,4.664c0.164,0.082-0.408,0.564-0.736,0.691
		c-0.326,0.127-2.945-1.754-4.418-2.491c-1.473-0.737-1.963-0.655-2.617-1.309c-0.656-0.655-0.492-0.876,0.654-1.788
		c1.145-0.913,4.336-2.631,3.764-3.531c-0.574-0.9-2.291-1.473-8.184-2.127c-5.563-1.228-10.227-3.027-12.682-3.6
		s-5.645-1.555-7.938,0.409c-2.291,1.964-1.963,2.782-2.617,3.191s-4.338,1.146-3.684,1.228
		C193.949,225.609,181.676,228.309,176.684,237.391z"/>
</g>
</svg>
