<?xml version="1.0" encoding="utf-8"?>
<!-- Generator: Adobe Illustrator 16.0.0, SVG Export Plug-In . SVG Version: 6.00 Build 0)  -->
<!DOCTYPE svg PUBLIC "-//W3C//DTD SVG 1.1//EN" "http://www.w3.org/Graphics/SVG/1.1/DTD/svg11.dtd">
<svg version="1.1" id="レイヤー_1" xmlns="http://www.w3.org/2000/svg" xmlns:xlink="http://www.w3.org/1999/xlink" x="0px"
	 y="0px" width="106.346px" height="102.5px" viewBox="0 0 106.346 102.5" enable-background="new 0 0 106.346 102.5"
	 xml:space="preserve">
<g>
	<circle fill="#231815" cx="50" cy="50" r="50"/>
	<g>
		<path fill="#FFFFFF" d="M88.73,51.055c0.279-0.846-0.189-1.502-2.066-0.846c-1.878,0.656-8.354,3.285-11.546,5.352
			c0.188,0.094-0.47,0.646-0.846,0.791c-0.376,0.146-3.378-2.012-5.067-2.855c-1.689-0.846-2.253-0.752-3.004-1.502
			c-0.751-0.751-0.563-1.005,0.751-2.052c1.313-1.048,4.976-3.017,4.316-4.05c-0.656-1.033-2.628-1.689-9.387-2.44
			c-6.383-1.407-11.732-3.473-14.548-4.13c-2.815-0.658-6.477-1.783-9.104,0.469c-2.628,2.254-2.253,3.191-3.003,3.661
			c-0.751,0.47-4.976,1.313-4.225,1.408c0.751,0.094-13.328,3.192-19.054,13.61l3.379,2.627h-4.13c0,0,9.762,7.697,21.213,7.887
			c1.877,1.125,10.325,7.884,12.014,5.818c-0.563-2.815-2.063-5.443-2.063-5.443l9.01-0.752c0,0,3.379,4.318,6.759,3.943
			c3.379-0.377,10.512-4.693,10.137-6.571c-0.375-1.689-1.688-1.689-1.688-1.689l7.32-3.19c0,0,10.231,6.759,14.269,6.289
			c0.656,0.095,0.845-2.629,0-4.412c-0.847-1.783-2.16-2.723-2.629-3.473c-0.471-0.752-0.096-1.689,0.188-2.064
			C86.004,57.061,88.637,53.588,88.73,51.055z"/>
		<path fill="#FFFFFF" d="M59.279,35.159c0.818,0.492,4.515,3.448,5.253,2.545c-0.247-1.231-0.903-2.381-0.903-2.381l3.94-0.328
			c0,0,1.478,1.888,2.954,1.724c1.479-0.164,4.599-2.052,4.435-2.873c-0.164-0.738-0.739-0.738-0.739-0.738l3.202-1.396
			c0,0,4.475,2.955,6.239,2.75c0.287,0.043,0.369-1.148,0-1.929s-0.945-1.19-1.149-1.519c-0.206-0.328-0.041-0.739,0.082-0.903
			c0.122-0.165,1.273-1.683,1.313-2.791c0.123-0.369-0.082-0.657-0.903-0.369c-0.82,0.287-3.653,1.437-5.049,2.339
			c0.083,0.042-0.205,0.283-0.368,0.348c-0.165,0.063-1.479-0.881-2.217-1.25c-0.74-0.371-0.986-0.33-1.313-0.657
			c-0.328-0.328-0.246-0.439,0.327-0.897c0.575-0.458,2.177-1.32,1.889-1.771c-0.286-0.451-1.148-0.738-4.104-1.066
			c-2.791-0.615-5.131-1.52-6.361-1.806c-1.231-0.287-2.832-0.78-3.981,0.204c-1.149,0.986-0.986,1.396-1.313,1.602
			c-0.328,0.205-2.176,0.575-1.848,0.616s-5.828,1.396-8.332,5.952l1.477,1.15h-1.806C50,31.711,54.269,35.077,59.279,35.159z"/>
	</g>
</g>
</svg>
