<?xml version="1.0" encoding="utf-8"?>
<!-- Generator: Adobe Illustrator 16.0.0, SVG Export Plug-In . SVG Version: 6.00 Build 0)  -->
<!DOCTYPE svg PUBLIC "-//W3C//DTD SVG 1.1//EN" "http://www.w3.org/Graphics/SVG/1.1/DTD/svg11.dtd">
<svg version="1.1" id="レイヤー_1" xmlns="http://www.w3.org/2000/svg" xmlns:xlink="http://www.w3.org/1999/xlink" x="0px"
	 y="0px" width="107.32px" height="111px" viewBox="0 0 107.32 111" enable-background="new 0 0 107.32 111" xml:space="preserve">
<g>
	<circle fill="#231815" cx="50" cy="50" r="50"/>
	<g>
		<polygon fill="#FFFFFF" points="39.852,15.142 30.602,25.174 60.473,25.174 69.056,15.142 		"/>
		<path fill="#FFFFFF" d="M30.602,84.858h29.693V25.665H30.602V84.858z M57.658,48.343h-3.115v-5.574h3.115V48.343z M54.528,32.079
			h3.115v5.574h-3.115V32.079z M54.528,53.46h3.115v5.573h-3.115V53.46z M53.591,48.343h-3.115v-5.574h3.115V48.343z M50.461,32.079
			h3.116v5.574h-3.116V32.079z M50.461,53.46h3.116v5.573h-3.116V53.46z M49.523,48.343h-3.115v-5.574h3.115V48.343z M46.393,32.079
			h3.115v5.574h-3.115V32.079z M46.393,53.46h3.115v5.573h-3.115V53.46z M45.456,48.343h-3.115v-5.574h3.115V48.343z M42.326,32.079
			h3.114v5.574h-3.114V32.079z M42.326,53.46h3.114v5.573h-3.114V53.46z M41.388,48.343h-3.116v-5.574h3.116V48.343z M38.259,32.079
			h3.115v5.574h-3.115V32.079z M38.259,53.46h3.115v5.573h-3.115V53.46z M37.321,48.343h-3.116v-5.574h3.116V48.343z M34.192,32.079
			h3.115v5.574h-3.115V32.079z M34.192,53.46h3.115v5.573h-3.115V53.46z"/>
		<path fill="#FFFFFF" d="M69.056,15.449l-8.419,9.739v59.363l8.76-8.695L69.056,15.449z M62.287,30.64l2.116-3.01v5.199
			l-2.116,3.01V30.64z M64.569,54.618l-2.117,3.01v-5.199l2.117-3.01V54.618z M64.569,43.927l-2.117,3.01v-5.199l2.117-3.01V43.927z
			 M65.301,26.47l2.118-3.009v5.198l-2.118,3.01V26.47z M67.583,50.447l-2.117,3.011v-5.2l2.117-3.009V50.447z M67.583,39.756
			l-2.117,3.011v-5.199l2.117-3.01V39.756z"/>
	</g>
</g>
</svg>
